<?xml version="1.0" encoding="utf-8"?>
<!-- Generator: Adobe Illustrator 16.0.0, SVG Export Plug-In . SVG Version: 6.00 Build 0)  -->
<!DOCTYPE svg PUBLIC "-//W3C//DTD SVG 1.1//EN" "http://www.w3.org/Graphics/SVG/1.1/DTD/svg11.dtd">
<svg version="1.1" id="Layer_2" xmlns="http://www.w3.org/2000/svg" xmlns:xlink="http://www.w3.org/1999/xlink" x="0px" y="0px"
	 width="2048px" height="1024px" viewBox="0 0 2048 1024" enable-background="new 0 0 2048 1024" xml:space="preserve">
<path fill="#FFFFFF" d="M488.967,545.252c0,0-77.477,80.207-100.623,80.207c-30.22,0-117.663-57.527-117.663-61.883
	c0-5.795,62.688-26.361,62.688-43.4c0-8.273-9.001-13.5-30.219-13.5c-35.363,0-111.234,52.08-119.591,52.08
	c-13.825,0-151.608-101.559-117.176-88.729c32.787,12.216,74.453,27.005,100.458,27.005c19.61,0,99.979-133.9,142.738-133.9
	c44.686,0,203.34,82.463,203.34,82.463L488.967,545.252z M521.729,625.121h105.867l10.88-47.322h-24.869l34.368-142.652
	l34.368,186.865h51.984l116.92-184.793l-32.641,140.58h-19.861l-11.053,47.322H893.56l10.881-47.322h-25.733l38.858-167.004h26.596
	l10.881-47.494H832.94L726.037,538.77l-31.259-175.468h-118.82l-11.053,47.494h30.05l-38.686,167.004h-23.488L521.729,625.121z
	 M1129.992,549.131c0.804-2.531,1.554-5.295,2.245-8.289c0.69-2.994,1.266-6.016,1.727-9.068c0.459-3.049,0.804-6.014,1.036-8.893
	c0.229-2.877,0.346-5.469,0.346-7.773c0-9.67-1.986-18.997-5.958-27.977c-3.973-8.981-9.499-16.896-16.58-23.747
	c-7.081-6.849-15.517-12.318-25.301-16.407c-9.788-4.085-20.495-6.131-32.123-6.131c-14.623,0-28.526,2.62-41.708,7.858
	c-13.185,5.24-24.783,12.667-34.8,22.279c-10.017,9.615-17.991,21.156-23.92,34.627c-5.931,13.47-8.894,28.439-8.894,44.902
	c0,12.207,2.158,23.203,6.476,32.986c4.318,9.789,10.16,18.107,17.53,24.957c7.366,6.852,16.002,12.119,25.905,15.803
	c9.9,3.684,20.492,5.525,31.777,5.525c17.5,0,33.85-2.908,49.048-8.721s28.609-14.939,40.24-27.373l-37.995-33.332
	c-3.108,2.762-6.247,5.297-9.412,7.598c-3.168,2.305-6.477,4.291-9.931,5.959c-3.454,1.67-7.11,2.965-10.967,3.885
	c-3.858,0.924-8.09,1.383-12.693,1.383c-6.218,0-11.515-0.949-15.889-2.85c-4.377-1.9-7.918-4.49-10.622-7.771
	c-2.706-3.281-4.636-7.107-5.785-11.484c-0.69-2.531-1.152-5.182-1.382-7.945H1129.992z M1019.375,495.506
	c3.972-3.281,8.576-5.786,13.816-7.513c5.237-1.727,10.734-2.59,16.493-2.59c4.836,0,9.239,0.72,13.212,2.159
	c3.972,1.441,7.426,3.311,10.362,5.613c2.936,2.304,5.294,4.921,7.08,7.858c1.784,2.937,2.791,5.958,3.022,9.067h-74.78
	c0.346-0.805,0.747-1.611,1.209-2.418C1012.208,502.846,1015.402,498.788,1019.375,495.506z M1264.528,625.121h91.533l11.053-47.322
	h-32.986l30.568-131.6h-58.719l-2.073,8.808c-6.449-4.604-12.089-7.599-16.925-8.98c-4.836-1.382-9.126-2.418-12.866-3.109
	c-3.743-0.691-8.263-1.036-13.558-1.036c-9.441,0-18.738,1.123-27.892,3.368s-17.848,5.5-26.078,9.758
	c-8.233,4.261-15.832,9.499-22.797,15.716c-6.968,6.218-12.982,13.328-18.048,21.329c-5.067,8.004-9.04,16.812-11.916,26.424
	c-2.88,9.613-4.317,19.947-4.317,31c0,12.779,2.158,24.064,6.476,33.85c4.318,9.787,9.958,17.99,16.926,24.611
	c6.965,6.621,14.938,11.6,23.919,14.938s18.134,5.01,27.46,5.01c10.13,0,18.938-1.672,26.424-5.01
	c7.021-3.107,12.664-6.908,16.925-11.398L1264.528,625.121z M1263.665,568.561c-3.687,2.016-7.513,3.514-11.485,4.49
	c-3.972,0.979-7.857,1.467-11.657,1.467c-4.49,0-8.694-0.689-12.607-2.072c-3.916-1.381-7.37-3.453-10.362-6.217
	c-2.995-2.764-5.354-6.217-7.081-10.361c-1.727-4.146-2.591-8.98-2.591-14.508c0-6.562,1.266-12.721,3.8-18.479
	c2.531-5.758,5.899-10.736,10.104-14.94c4.201-4.201,9.123-7.54,14.766-10.017c5.641-2.475,11.571-3.713,17.789-3.713
	c3.913,0,7.799,0.491,11.657,1.468c3.856,0.979,7.427,2.391,10.708,4.231c3.281,1.843,6.015,4.002,8.203,6.476
	c2.186,2.478,3.973,5.038,5.354,7.686l-8.635,37.305l-7.599,9.498C1270.802,563.984,1267.348,566.547,1263.665,568.561z
	 M1406.49,403.714h34.368l-51.12,221.407h91.36l10.88-47.322h-32.641l51.12-221.405h-93.088L1406.49,403.714z M1547.935,410.795
	h30.914l-41.276,178.922c-3.686,10.479-8.376,19.688-14.075,27.633c-5.699,7.943-11.312,15.051-16.839,21.328
	c-5.526,6.273-13.125,14.594-22.797,24.955l48.53,3.973c11.166-9.902,21.184-19.402,30.051-28.496
	c10.13-9.787,17.098-17.184,20.896-22.191c3.8-5.01,8.117-12.176,12.953-21.502l42.658-184.621h25.732l10.881-47.494h-116.748
	L1547.935,410.795z M1834.624,549.131c0.804-2.531,1.554-5.295,2.245-8.289c0.69-2.994,1.266-6.016,1.727-9.068
	c0.459-3.049,0.804-6.014,1.036-8.893c0.229-2.877,0.346-5.469,0.346-7.773c0-9.67-1.986-18.997-5.958-27.977
	c-3.973-8.981-9.499-16.896-16.58-23.747c-7.081-6.849-15.517-12.318-25.301-16.407c-9.788-4.085-20.495-6.131-32.123-6.131
	c-14.623,0-28.526,2.62-41.708,7.858c-13.185,5.24-24.783,12.667-34.8,22.279c-10.017,9.615-17.991,21.156-23.92,34.627
	c-5.931,13.47-8.894,28.439-8.894,44.902c0,12.207,2.158,23.203,6.476,32.986c4.318,9.789,10.16,18.107,17.53,24.957
	c7.366,6.852,16.002,12.119,25.905,15.803c9.9,3.684,20.492,5.525,31.777,5.525c17.5,0,33.85-2.908,49.048-8.721
	s28.609-14.939,40.24-27.373l-37.995-33.332c-3.108,2.762-6.247,5.297-9.412,7.598c-3.168,2.305-6.477,4.291-9.931,5.959
	c-3.454,1.67-7.11,2.965-10.967,3.885c-3.858,0.924-8.09,1.383-12.693,1.383c-6.218,0-11.515-0.949-15.889-2.85
	c-4.377-1.9-7.918-4.49-10.622-7.771c-2.706-3.281-4.636-7.107-5.785-11.484c-0.69-2.531-1.152-5.182-1.382-7.945H1834.624z
	 M1724.007,495.506c3.972-3.281,8.576-5.786,13.816-7.513c5.237-1.727,10.734-2.59,16.493-2.59c4.836,0,9.239,0.72,13.212,2.159
	c3.972,1.441,7.426,3.311,10.362,5.613c2.936,2.304,5.294,4.921,7.08,7.858c1.784,2.937,2.791,5.958,3.022,9.067h-74.78
	c0.346-0.805,0.747-1.611,1.209-2.418C1716.84,502.846,1720.034,498.788,1724.007,495.506z M1850.685,493.52h32.986l-18.134,77.199
	c-2.764,11.285-3.772,20.697-3.022,28.236c0.747,7.543,2.936,13.559,6.562,18.049s8.576,7.686,14.853,9.584
	c6.274,1.9,13.558,2.85,21.847,2.85c5.182,0,9.987-0.201,14.421-0.604c4.432-0.404,8.636-0.98,12.607-1.727
	c3.973-0.75,7.742-1.701,11.312-2.85c3.567-1.15,7.194-2.418,10.88-3.801l-0.69-39.549c-3.225,0.924-6.247,1.613-9.067,2.072
	c-2.822,0.461-5.439,0.691-7.857,0.691c-2.996,0-5.613-0.834-7.858-2.504c-2.245-1.668-3.483-4.404-3.713-8.203
	c-0.232-3.801,0.518-8.922,2.245-15.371l15.025-64.074h33.159l10.88-47.321h-32.813l16.925-71.154l-66.146,28.323l-10.189,42.831
	h-33.332L1850.685,493.52z"/>
</svg>
